<svg xmlns="http://www.w3.org/2000/svg" viewBox="0 0 48 30" role="img" aria-label="American Express">
  <rect width="48" height="30" rx="4" fill="#2E77BC"/>
  <path fill="#fff" d="M8.5 20.5 11 14.2l2.5 6.3h-1.6l-.5-1.4H9.6l-.5 1.4H8.5zm2-2.4-.8-2.1-.8 2.1h1.6zM15.2 20.5v-6.3h2.4c1.3 0 2.1.8 2.1 2 0 .7-.3 1.2-.8 1.5l1.2 2.8h-1.7l-1-2.4h-1v2.4h-1.2zm1.2-3.4h1.1c.6 0 .9-.3.9-.8s-.3-.8-.9-.8h-1.1v1.6zM22.8 20.5l2.3-6.3h1.4l2.3 6.3h-1.3l-.4-1.2h-2.6l-.4 1.2h-1.3zm2.5-2.2 1-2.7 1 2.7h-2zM31.2 20.5v-6.3H35v1.1h-2.6v1.2H34v1.1h-2.6v2.9h-1.2zM36.5 20.5v-6.3h3.2c1.1 0 1.8.6 1.8 1.6 0 .7-.4 1.2-1 1.4l1.2 3.3h-1.4l-1-2.9h-1v2.9h-1.6zm1.6-4h1.5c.4 0 .6-.2.6-.5s-.2-.5-.6-.5h-1.5v1z"/>
</svg>
