<svg xmlns="http://www.w3.org/2000/svg" viewBox="0 0 48 20" role="img" aria-label="Apple Pay">
  <path fill="#000" d="M12.1 4.3c-.7.8-1.8 1.4-2.9 1.3-.1-1.1.4-2.3 1-3.1.7-.9 1.9-1.5 2.8-1.6.1 1.2-.3 2.3-1 3.4zm.9 1.4c-1.6-.1-3 .9-3.8.9-.8 0-2-.9-3.3-.8-1.7 0-3.3 1-4.2 2.5-1.8 3.1-.5 7.7 1.3 10.2.9 1.2 1.9 2.6 3.3 2.5 1.3-.1 1.8-.8 3.4-.8s2 .8 3.3.8c1.4 0 2.2-1.2 3.1-2.4.9-1.4 1.3-2.7 1.3-2.8-.1 0-2.6-1-2.6-3.9 0-2.5 2-3.7 2.1-3.8-1.1-1.7-2.9-1.9-3.5-2z"/>
  <path fill="#000" d="M28.2 3.5c2.7 0 4.6 1.9 4.6 4.6 0 2.8-1.9 4.7-4.7 4.7h-2.9v4.9h-2.4V3.5h5.4zm-2.9 7.6h2.4c1.9 0 3-1 3-3s-1.1-3-3-3h-2.4v6zM35.8 3.5h2.3l3.5 9.8h.1l3.5-9.8h2.3l-4.7 12.7h-2.3L35.8 3.5z"/>
</svg>
