<svg xmlns="http://www.w3.org/2000/svg" viewBox="0 0 48 30" role="img" aria-label="PayPal">
  <path fill="#003087" d="M18.2 6.5h-6.8c-.5 0-.9.4-1 1L8.5 22.5c0 .5.4.9.9.9h3.2c.3 0 .6-.2.6-.6l.6-3.8c0-.5.4-.9 1-.9h2c4.1 0 6.5-2 7.1-5.9.3-1.7 0-3-.8-3.9-.9-1-2.4-1.3-4.3-1.3h-.6zm.8 5.8c-.3 2.2-2.1 2.2-3.8 2.2h-1l.7-4.6c0-.3.3-.5.6-.5h.5c1.1 0 2.2 0 2.8.6.4.4.6 1 .4 2.3z"/>
  <path fill="#009CDE" d="M32.5 6.5h-6.8c-.5 0-.9.4-1 1l-2.9 15c0 .5.4.9.9.9h3.2c.3 0 .6-.2.6-.6l.6-3.8c0-.5.4-.9 1-.9h2c4.1 0 6.5-2 7.1-5.9.3-1.7 0-3-.8-3.9-.9-1-2.4-1.3-4.3-1.3h-.6zm.8 5.8c-.3 2.2-2.1 2.2-3.8 2.2h-1l.7-4.6c0-.3.3-.5.6-.5h.5c1.1 0 2.2 0 2.8.6.4.4.6 1 .4 2.3z"/>
</svg>
