<svg xmlns="http://www.w3.org/2000/svg" viewBox="0 0 48 16" role="img" aria-label="Visa">
  <path fill="#1A1F71" d="M19.5 15.2h-3.1L17.8 1h3.1l-1.4 14.2zm11.2-13.8c-.6-.2-1.6-.5-2.8-.5-3.1 0-5.2 1.6-5.2 4 0 1.7 1.6 2.7 2.8 3.3 1.2.6 1.7 1 1.7 1.5 0 .8-1 1.2-2 1.2-1.3 0-2-.3-3.1-.9l-.4-.2-.5 2.8c.8.4 2.3.7 3.8.7 3.3 0 5.4-1.6 5.5-4 .1-1.4-.9-2.4-2.8-3.3-1.2-.6-1.9-1-1.9-1.6 0-.5.6-1.1 1.9-1.1 1.1 0 1.9.2 2.5.5l.3.1.5-2.8zM41.5 1h-2.4c-.7 0-1.3.2-1.6 1l-4.6 14.2h3.3l.6-1.8h4.1l.4 1.8h2.9L41.5 1zm-4.2 9.1l1.7-4.7.9 4.7h-2.6zM15.2 1 12 10.6 11.6 8c-.7-2.4-2.8-5-5.2-6.3L9.4 15.2h3.3l4.9-14.2H15.2z"/>
  <path fill="#F9A533" d="M6.4 1C4.2 1.6 2.2 3.2.8 5.5c2.4 1 4.1 3.2 4.8 5.7L6.4 1z"/>
</svg>
